<?xml version="1.0" standalone="no"?>
<!DOCTYPE svg PUBLIC "-//W3C//DTD SVG 20010904//EN"
 "http://www.w3.org/TR/2001/REC-SVG-20010904/DTD/svg10.dtd">
<svg version="1.0" xmlns="http://www.w3.org/2000/svg"
 width="700.000000pt" height="700.000000pt" viewBox="0 0 700.000000 700.000000"
 preserveAspectRatio="xMidYMid meet">
<metadata>
Created by potrace 1.14, written by Peter Selinger 2001-2017
</metadata>
<g transform="translate(0.000000,700.000000) scale(0.100000,-0.100000)"
fill="#000000" stroke="none">
<path d="M970 5485 l0 -285 1250 0 1250 0 0 285 0 285 -1250 0 -1250 0 0 -285z"/>
<path d="M4270 5485 l0 -285 595 0 596 0 -3 -1037 -4 -1038 -27 -104 c-98
-373 -341 -700 -647 -869 -56 -31 -617 -292 -628 -292 -3 0 -134 59 -291 132
-402 185 -497 244 -647 400 -220 229 -353 509 -386 813 l-11 105 -284 0 c-220
0 -283 -3 -283 -12 0 -7 5 -67 11 -132 22 -257 89 -488 215 -739 154 -306 401
-568 699 -740 87 -50 922 -450 939 -450 17 0 872 390 956 435 442 240 772 667
899 1163 58 227 55 155 58 1603 l4 1332 -881 0 -880 0 0 -285z"/>
<path d="M970 4345 l0 -285 1250 0 1250 0 0 285 0 285 -1250 0 -1250 0 0 -285z"/>
</g>
</svg>
