<?xml version="1.0" encoding="UTF-8"?><svg id="Layer_1" xmlns="http://www.w3.org/2000/svg" viewBox="0 0 32 32"><rect id="_Transparent_Rectangle_" width="32" height="32" fill="none" stroke-width="0"/><path d="M11.2,22.6v-1.2h9.6v1.2h-9.6ZM11.2,10.6v-1.2h9.6v1.2h-9.6ZM16,16.6c.5,0,.925-.175,1.275-.525s.525-.775.525-1.275-.175-.925-.525-1.275-.775-.525-1.275-.525-.925.175-1.275.525-.525.775-.525,1.275.175.925.525,1.275.775.525,1.275.525ZM11.2,20.8c-.33,0-.6125-.1175-.8475-.3525s-.3525-.5175-.3525-.8475v-7.2c0-.33.1175-.6125.3525-.8475s.5175-.3525.8475-.3525h9.6c.33,0,.6125.1175.8475.3525s.3525.5175.3525.8475v7.2c0,.33-.1175.6125-.3525.8475s-.5175.3525-.8475.3525h-9.6ZM12.25,19.6h7.5c-.45-.56-.995-1-1.635-1.32s-1.345-.48-2.115-.48-1.475.16-2.115.48-1.185.76-1.635,1.32Z" fill="#000" stroke-width="0"/></svg>