<?xml version="1.0" encoding="UTF-8"?><svg id="Layer_1" xmlns="http://www.w3.org/2000/svg" viewBox="0 0 32 32"><rect x="11" y="11.5" width="10" height="1" fill="#000" stroke-width="0"/><rect x="12" y="9.5" width="8" height="1" fill="#000" stroke-width="0"/><rect id="_Transparent_Rectangle_" width="32" height="32" fill="none" stroke-width="0"/><path d="M21,13.49998h-10c-.552.00061-.99939.448-1,1v7c.00061.552.448.99939,1,1h10c.552-.00061.99939-.448,1-1v-7c-.00061-.552-.448-.99939-1-1ZM13.41302,16.35935h2.4375v.65625h-2.4375v-.65625ZM13.41302,17.67185h2.4375v.65625h-2.4375v-.65625ZM18.28802,18.49217c0,.62341-.3609,1.21405-.95154,1.47656l-.72186.32812-.68909-.32812c-.42657-.1969-.72186-.5578-.85309-.98438h.72186c.09845.16406.22968.29529.42657.39374l.42651.1969.42657-.1969c.32812-.16406.5578-.52496.5578-.88593v-1.47656h-.98438v-.65625h1.64062v2.13281Z" fill="#000" stroke-width="0"/></svg>