<?xml version="1.0" encoding="UTF-8"?><svg id="Layer_1" xmlns="http://www.w3.org/2000/svg" viewBox="0 0 32 32"><rect x="11" y="11.5" width="10" height="1" fill="#000" stroke-width="0"/><rect x="12" y="9.5" width="8" height="1" fill="#000" stroke-width="0"/><rect id="_Transparent_Rectangle_" width="32" height="32" fill="none" stroke-width="0"/><path d="M20.99999,13.49998h-10c-.552.00061-.99939.448-1,1v7c.00061.552.448.99939,1,1h10c.552-.00061.99939-.448,1-1v-7c-.00061-.552-.448-.99939-1-1ZM13.74406,15.98149h2.22614v.50592h-2.22614v-.50592ZM13.74406,16.99333h2.22614v.50592h-2.22614v-.50592ZM18.24406,18.1823c0,.65076-.37939,1.24011-.96753,1.50153l-.73639.33459-.70239-.33435c-.37823-.1745-.66559-.48022-.82031-.86938h.00122c-.00104-.00238-.00244-.00452-.00348-.0069-.00116-.00287-.00299-.00543-.00409-.0083h.00098c-.08081-.19641-.12769-.40894-.12769-.62994h.50592c0,.23651.08875.47809.23157.677.11603.16461.25964.2887.44989.38373l.50275.23224.50574-.23358c.38739-.19366.6579-.62415.6579-1.04663v-1.69489h-1.06244v-.50592h1.56836v2.20081Z" fill="#000" stroke-width="0"/></svg>